# xmcd
#
# Track frame offsets:
#	150
#	18986
#	35222
#	51264
#	71830
#	90161
#	106503
#	123678
#	142730
#	160589
#	179825
#	193998
#	213426
#
# Disc length: 3182 seconds
#
# Revision: 1
# Processed by: cddbd v1.5.1PL0 Copyright (c) Steve Scherf et al.
# Submitted via: audiograbber 1.82.02
#
DISCID=b70c6c0d
DTITLE=Faith Hill - Breathe
DYEAR=1999
DGENRE=Country
TTITLE0=Faith Hill - What's In It For Me
TTITLE1=Faith Hill - I Got My Baby
TTITLE2=Faith Hill - Love Is A Sweet Thing
TTITLE3=Faith Hill - Breathe
TTITLE4=Faith Hill - Let's Make Love
TTITLE5=Faith Hill - It Will Be Me
TTITLE6=Faith Hill - The Way You Love Me
TTITLE7=Faith Hill - If I'm Not In Love
TTITLE8=Faith Hill - Bringing Out The Elvis
TTITLE9=Faith Hill - If My Heart Had Wings
TTITLE10=Faith Hill - If I Should Fall Behind
TTITLE11=Faith Hill - That's How Love Moves
TTITLE12=Faith Hill - There Will Come A Day
EXTD=
EXTT0=
EXTT1=
EXTT2=
EXTT3=
EXTT4=
EXTT5=
EXTT6=
EXTT7=
EXTT8=
EXTT9=
EXTT10=
EXTT11=
EXTT12=
PLAYORDER=
